<svg xmlns="http://www.w3.org/2000/svg" width="21.035" height="21.035" viewBox="0 0 21.035 21.035"><defs><style>.a{fill:#fff;}</style></defs><path class="a" d="M9.244,294.67H9.038v-2.054A.616.616,0,0,0,8.422,292H5.752a.616.616,0,0,0-.616.616v.752a.663.663,0,0,1-.582.685.616.616,0,0,1-.65-.615v-.822A.616.616,0,0,0,3.287,292H.616a.616.616,0,0,0-.616.616v6.162a2.262,2.262,0,0,0,2.26,2.26H8.422a.616.616,0,0,0,.616-.616v-2.054h.205a1.849,1.849,0,0,0,0-3.7Zm0,2.465H8.422a.616.616,0,0,0-.616.616v2.054H2.26a1.028,1.028,0,0,1-1.027-1.027v-5.546H2.67v.205a1.857,1.857,0,0,0,.576,1.341,1.833,1.833,0,0,0,1.371.505,1.885,1.885,0,0,0,1.75-1.916v-.136H7.806v2.054a.616.616,0,0,0,.616.616h.822a.616.616,0,0,1,0,1.232Z" transform="translate(0 -280.004)"/><path class="a" d="M118.844,2.26A2.262,2.262,0,0,0,116.585,0H104.26A2.262,2.262,0,0,0,102,2.26V8.422a.616.616,0,0,0,.616.616h2.054v.205a1.849,1.849,0,0,0,3.7,0V9.038h1.438v2.054a.616.616,0,0,0,.616.616h.752a.663.663,0,0,1,.685.582.616.616,0,0,1-.615.65h-.822a.616.616,0,0,0-.616.616v2.67a.616.616,0,0,0,.616.616h6.162a2.262,2.262,0,0,0,2.26-2.26Zm-7.806,1.027V1.232h5.546a1.028,1.028,0,0,1,1.027,1.027V7.806h-1.438V7.6a1.857,1.857,0,0,0-.576-1.341,1.834,1.834,0,0,0-1.371-.505,1.885,1.885,0,0,0-1.75,1.916v.136h-1.438V5.752a.616.616,0,0,0-.616-.616h-.752a.663.663,0,0,1-.685-.582.616.616,0,0,1,.615-.65h.822a.616.616,0,0,0,.616-.616Zm-3.287,4.519a.616.616,0,0,0-.616.616v.822a.616.616,0,0,1-1.232,0V8.422a.616.616,0,0,0-.616-.616h-2.054V2.26a1.028,1.028,0,0,1,1.027-1.027h5.546V2.67H109.6a1.857,1.857,0,0,0-1.341.576,1.834,1.834,0,0,0-.505,1.371,1.885,1.885,0,0,0,1.916,1.75h.136V7.806Zm8.833,7.806h-5.546V14.174h.205a1.857,1.857,0,0,0,1.341-.576,1.834,1.834,0,0,0,.505-1.371,1.885,1.885,0,0,0-1.916-1.75h-.136V9.038h2.054a.616.616,0,0,0,.616-.616V7.67a.663.663,0,0,1,.582-.685.616.616,0,0,1,.65.615v.822a.616.616,0,0,0,.616.616h2.054v5.546A1.028,1.028,0,0,1,116.585,15.612Z" transform="translate(-97.81)"/></svg>