<svg xmlns="http://www.w3.org/2000/svg" width="24" height="24" viewBox="0 0 24 24"><defs><style>.a{fill:none;}.b{fill:#fff;}</style></defs><path class="a" d="M0,0H24V24H0Z"/><path class="b" d="M11.5,2A9.5,9.5,0,0,1,20,15.754l2.463,2.464a1,1,0,0,1,0,1.414L19.632,22.46a1,1,0,0,1-1.414,0L15.754,20A9.5,9.5,0,1,1,11.5,2Zm5.3,13.388L15.389,16.8l3.536,3.535,1.414-1.414L16.8,15.388Zm1.864-6.105L9.283,18.667a7.539,7.539,0,0,0,4.957-.183l-.972-.974a1,1,0,0,1,0-1.414L16.1,13.268a1,1,0,0,1,1.414,0l.974.972a7.539,7.539,0,0,0,.183-4.957ZM11.5,4A7.5,7.5,0,0,0,7.364,17.757L17.757,7.364A7.493,7.493,0,0,0,11.5,4Z"/></svg>