<svg xmlns="http://www.w3.org/2000/svg" width="21.871" height="21.871" viewBox="0 0 21.871 21.871"><defs><style>.a{fill:#fff;}</style></defs><g transform="translate(-1 -1)"><path class="a" d="M14.525,5.706V5A9.535,9.535,0,0,0,5,14.525h.706A8.829,8.829,0,0,1,14.525,5.706Z" transform="translate(-2.589 -2.589)"/><path class="a" d="M5,34h.706v.706H5Z" transform="translate(-2.589 -21.359)"/><path class="a" d="M1.706,11.936A10.231,10.231,0,0,1,22.024,10.23l.7-.117A10.937,10.937,0,1,0,9.749,22.653l.14-.691A10.258,10.258,0,0,1,1.706,11.936Z"/><path class="a" d="M31.343,28.472a4.89,4.89,0,0,1,0-5.425l.258-.387a1.977,1.977,0,0,0-2.742-2.742l-.24.16a5.463,5.463,0,0,1-1.634.734,5.994,5.994,0,1,0-6.495,6.157,4.865,4.865,0,0,1-.667,1.5l-.258.387A1.977,1.977,0,0,0,22.307,31.6l.24-.16A8.607,8.607,0,0,1,24.9,30.7c1.17-.136,1.961.093,3.854.833l.1.067A1.977,1.977,0,0,0,31.6,28.859ZM26.122,19.7l-2.737-1.095-1.095-2.737A5.3,5.3,0,0,1,26.122,19.7ZM21.473,15.73l1.313,3.282a.353.353,0,0,0,.2.2l3.282,1.313c.013.141.02.284.022.429a5.419,5.419,0,0,1-3.739-.871l-.24-.16a1.977,1.977,0,0,0-2.742,2.742l.258.387a4.811,4.811,0,0,1,.792,3.223l-.094,0-1.313-3.282a.353.353,0,0,0-.2-.2L15.73,21.474c-.014-.157-.024-.316-.024-.477s.01-.319.024-.476l3.282-1.313a.353.353,0,0,0,.2-.2l1.313-3.282c.157-.014.315-.024.476-.024s.319.01.476.024Zm-1.769.143-1.095,2.737L15.872,19.7A5.3,5.3,0,0,1,19.7,15.872ZM15.872,22.29l2.737,1.095L19.7,26.122A5.3,5.3,0,0,1,15.872,22.29Zm14.083,8.937a1.269,1.269,0,0,1-.706-.213l-.24-.16c-.082-.055-.168-.1-.252-.153l-.836-.279A7.364,7.364,0,0,0,23.2,30.3a6.182,6.182,0,0,0-1.045.555l-.24.16a1.272,1.272,0,0,1-1.764-1.763l.258-.387a5.6,5.6,0,0,0,0-6.208l-.258-.387A1.272,1.272,0,0,1,21.916,20.5l.24.16a6.178,6.178,0,0,0,6.854,0l.24-.16a1.272,1.272,0,0,1,1.764,1.763l-.258.387a5.6,5.6,0,0,0,0,6.208l.258.387a1.272,1.272,0,0,1-1.058,1.977Z" transform="translate(-9.061 -9.061)"/></g></svg>