<svg xmlns="http://www.w3.org/2000/svg" width="26.286" height="20.169" viewBox="0 0 26.286 20.169"><defs><style>.a{fill:#fff;}</style></defs><path class="a" d="M26.284,70.693a.776.776,0,0,0-.123-.4L19.821,60.5a2.013,2.013,0,0,0-3.7,1.094V62.9a.77.77,0,0,0,1.54,0V61.6a.473.473,0,0,1,.871-.257L24.1,69.944H16.731a2.927,2.927,0,0,0-2.923,2.923v.164a2.258,2.258,0,0,0-1.33,0v-.163a2.927,2.927,0,0,0-2.923-2.923H2.185l5.571-8.606a.473.473,0,0,1,.871.257V62.9a.77.77,0,1,0,1.54,0V61.6a2.013,2.013,0,0,0-3.7-1.094L.124,70.3A.787.787,0,0,0,0,70.714v4.443a3.994,3.994,0,0,0,1.971,3.7,8.3,8.3,0,0,0,4.236.892H6.27a8.3,8.3,0,0,0,4.236-.892,3.994,3.994,0,0,0,1.971-3.7v-.236a.825.825,0,0,1,.663-.454.831.831,0,0,1,.667.456v.234a3.994,3.994,0,0,0,1.971,3.7,8.3,8.3,0,0,0,4.236.892h.063a8.3,8.3,0,0,0,4.236-.892,3.994,3.994,0,0,0,1.971-3.7V70.714c0-.007,0-.014,0-.022ZM10.938,75.157c0,1.421-.531,3.053-4.668,3.053H6.207c-4.137,0-4.668-1.632-4.668-3.053V71.484H9.554a1.385,1.385,0,0,1,1.383,1.383v2.29Zm13.808,0c0,1.421-.531,3.053-4.668,3.053h-.063c-4.137,0-4.668-1.632-4.668-3.053V72.868a1.385,1.385,0,0,1,1.383-1.383h8.015v3.673Z" transform="translate(0 -59.581)"/></svg>