<svg xmlns="http://www.w3.org/2000/svg" width="12.461" height="15.5" viewBox="0 0 12.461 15.5"><defs><style>.a{fill:#fff;}</style></defs><path class="a" d="M59.172,15.5a1.837,1.837,0,0,1-1.649-1.023l-.913-1.709-.518.989a.6.6,0,0,1-.045.073,1.636,1.636,0,0,1-1.313.639h-.01a1.818,1.818,0,0,1-1.264-.545,1.879,1.879,0,0,1-.548-1.332V4.752a1.816,1.816,0,0,1,2.973-1.4l3.988,2.97a.605.605,0,1,1-.723.971l-4-2.98-.029-.023a.605.605,0,0,0-1,.463v7.84a.659.659,0,0,0,.609.666h0a.471.471,0,0,0,.312-.115l1.022-1.951a.606.606,0,0,1,.534-.325h0a.605.605,0,0,1,.534.32L58.6,13.917l.012.023a.62.62,0,0,0,.816.293.618.618,0,0,0,.3-.816L58.257,10.8a.605.605,0,0,1,.528-.9H60.86a.6.6,0,0,0,.526-.38.61.61,0,0,0-.118-.658.605.605,0,1,1,.881-.831A1.829,1.829,0,0,1,60.9,11.108H59.819l.975,1.734.017.032A1.826,1.826,0,0,1,59.172,15.5ZM53.6,2.378a.605.605,0,0,0,.24-.822L53.321.618a.605.605,0,0,0-1.062.582l.515.938a.605.605,0,0,0,.822.24Zm-1.28,1.377a.606.606,0,0,0-.312-.8l-.969-.424a.605.605,0,1,0-.485,1.109l.969.424a.6.6,0,0,0,.8-.312ZM56.089,1.8l.333-1A.605.605,0,1,0,55.273.415l-.333,1a.605.605,0,1,0,1.149.383Zm1.6,1.536.817-.605a.605.605,0,1,0-.721-.973l-.817.605a.605.605,0,1,0,.721.973ZM51.077,6.739l.908-.363a.605.605,0,0,0-.45-1.124l-.908.363a.605.605,0,1,0,.45,1.124Z" transform="translate(-50.186 0)"/></svg>