<svg xmlns="http://www.w3.org/2000/svg" width="27.888" height="36.709" viewBox="0 0 27.888 36.709"><defs><style>.a{fill:#ff2929;fill-rule:evenodd;}</style></defs><path class="a" d="M13.132,0a6.288,6.288,0,0,1,2.753,1.062c2.264,1.345,4.628,3.771,3.847,7.762-.342,1.747-1.98,5.043-1.393,6.933a2.142,2.142,0,0,0,3.25,1c.821-.608.592-1.622.431-2.654h.2c5.019,1.553,7.03,8.057,4.676,13.833a13.957,13.957,0,0,1-9.253,8.26,22,22,0,0,1-2.819.431,10.874,10.874,0,0,1-4.344-.365A15.814,15.814,0,0,1,6.566,34.6,14.373,14.373,0,0,1,2.188,30.22,12.525,12.525,0,0,1,.431,26.306c-2-8.262,3.157-13.369,7.495-16.818C9.726,8.056,11.8,6.571,13,4.545a3.908,3.908,0,0,0,.663-2.588C13.537,1.222,13.256.639,13.132,0Z" transform="translate(0.012)"/></svg>