<svg id="Слой_1" data-name="Слой 1" xmlns="http://www.w3.org/2000/svg" viewBox="0 0 96 36"><defs><style>.cls-1{fill:#e51b4f;}.cls-2{fill:#fff;}.cls-3{isolation:isolate;}.cls-4{fill:#292929;}</style></defs><rect class="cls-1" width="36" height="36" rx="10"/><path class="cls-2" d="M24.5,24.89a1.54,1.54,0,0,1-1.5-1.5V17a4.87,4.87,0,0,0-4.87-4.88A4.88,4.88,0,0,0,13.25,17a4.76,4.76,0,0,0,1.43,3.47,4.67,4.67,0,0,0,3.45,1.44,1.45,1.45,0,0,1,1.06.43,1.5,1.5,0,0,1,0,2.12,1.38,1.38,0,0,1-1.06.45,7.57,7.57,0,0,1-5.57-2.32A7.68,7.68,0,0,1,10.25,17a7.68,7.68,0,0,1,2.31-5.59,7.57,7.57,0,0,1,5.57-2.32,7.57,7.57,0,0,1,5.56,2.32A7.64,7.64,0,0,1,26,17v6.41a1.47,1.47,0,0,1-.43,1.05A1.41,1.41,0,0,1,24.5,24.89Z" transform="translate(0 -0.28)"/><path class="cls-1" d="M86.5,9.28h8a1.5,1.5,0,0,1,1.5,1.5h0a1.5,1.5,0,0,1-1.5,1.5h-8a1.5,1.5,0,0,1-1.5-1.5h0A1.5,1.5,0,0,1,86.5,9.28Z" transform="translate(0 -0.28)"/><g class="cls-3"><g class="cls-3"><path class="cls-4" d="M50.4,15.22V2h2V15.22Z" transform="translate(0 -0.28)"/><path class="cls-4" d="M63.38,5.5h1.54v9.72H63.3L63.11,14a4.74,4.74,0,0,1-3.51,1.43,5,5,0,0,1-5.08-5.11A5,5,0,0,1,59.6,5.27a4.73,4.73,0,0,1,3.54,1.44Zm-5.92,7.14a3.1,3.1,0,0,0,2.29.91A3,3,0,0,0,62,12.64a3.16,3.16,0,0,0,.89-2.29,3.06,3.06,0,0,0-3.17-3.17,3.21,3.21,0,0,0-1.63.41A3,3,0,0,0,57,8.73a3.22,3.22,0,0,0-.42,1.63A3.13,3.13,0,0,0,57.46,12.64Z" transform="translate(0 -0.28)"/><path class="cls-4" d="M74.43,5.5h2l-4,9.72H70.65L66.54,5.5h2.11l2.92,7.22Z" transform="translate(0 -0.28)"/><path class="cls-4" d="M82.82,5.45h.86V7.34h-1q-2.49,0-2.49,2.7v5.18h-2V5.5H79.5l.35,1.34A3.47,3.47,0,0,1,82.82,5.45Z" transform="translate(0 -0.28)"/></g><g class="cls-3"><path class="cls-4" d="M53.94,24.35l.73.14.69.16a4.44,4.44,0,0,1,.71.24,6.27,6.27,0,0,1,.58.36,1.63,1.63,0,0,1,.51.5,3.75,3.75,0,0,1,.3.69,3.26,3.26,0,0,1,.12.9,2.73,2.73,0,0,1-1.08,2.27,4.53,4.53,0,0,1-2.86.85,4.32,4.32,0,0,1-2.86-.9,3.09,3.09,0,0,1-1.12-2.42h2a1.43,1.43,0,0,0,.61,1.15,2.47,2.47,0,0,0,1.48.4,3.13,3.13,0,0,0,1-.14,1.56,1.56,0,0,0,.68-.43,1,1,0,0,0,.25-.69,1,1,0,0,0-.07-.39.82.82,0,0,0-.24-.32,2.32,2.32,0,0,0-.36-.22,2.37,2.37,0,0,0-.46-.17c-.2-.06-.37-.1-.52-.13l-.58-.1L52.75,26l-.61-.13a3.63,3.63,0,0,1-.61-.2L51,25.39a1.51,1.51,0,0,1-.48-.36,4.79,4.79,0,0,1-.35-.47,2,2,0,0,1-.25-.6,3.55,3.55,0,0,1-.08-.76,2.57,2.57,0,0,1,1-2.12,4.28,4.28,0,0,1,2.72-.81,4.15,4.15,0,0,1,2.72.84,2.89,2.89,0,0,1,1,2.27h-1.9A1.26,1.26,0,0,0,55,22.33,2.26,2.26,0,0,0,53.57,22a2.41,2.41,0,0,0-1.32.32,1,1,0,0,0-.48.85.92.92,0,0,0,.07.38.81.81,0,0,0,.24.29,2.42,2.42,0,0,0,.33.2,1.7,1.7,0,0,0,.46.16l.5.1Zm10,4h1.1v1.82H63.59a3.18,3.18,0,0,1-3.45-3.45V22.21H58.41v-.38l3.38-3.6h.33V20.5H65v1.71H62.13V26.6a1.8,1.8,0,0,0,.48,1.34A1.87,1.87,0,0,0,64,28.4Z" transform="translate(0 -0.28)"/><path class="cls-4" d="M75.43,29A5.5,5.5,0,0,1,68,29a4.88,4.88,0,0,1-1.48-3.65,5.12,5.12,0,0,1,.67-2.61,4.7,4.7,0,0,1,1.88-1.82,5.37,5.37,0,0,1,2.65-.66,5.44,5.44,0,0,1,2.66.66,4.74,4.74,0,0,1,1.87,1.82,5.12,5.12,0,0,1,.67,2.61A4.88,4.88,0,0,1,75.43,29Zm-3.72-.46a3.3,3.3,0,0,0,1.64-.41A2.83,2.83,0,0,0,74.47,27a3.36,3.36,0,0,0,.41-1.65A3.12,3.12,0,0,0,74,23.08a3.34,3.34,0,0,0-4.56,0,3.38,3.38,0,0,0,0,4.57A3.09,3.09,0,0,0,71.71,28.55Z" transform="translate(0 -0.28)"/><path class="cls-4" d="M83.7,20.45h.86v1.89h-1Q81,22.34,81,25v5.18H79V20.5h1.35l.34,1.33A3.49,3.49,0,0,1,83.7,20.45Z" transform="translate(0 -0.28)"/><path class="cls-4" d="M95.09,25.38c0,.18,0,.4,0,.67H87.17a2.85,2.85,0,0,0,3,2.53,3.14,3.14,0,0,0,1.08-.17,2.63,2.63,0,0,0,.89-.48,2.66,2.66,0,0,0,.64-.77h2.11A5,5,0,0,1,93,29.58a4.88,4.88,0,0,1-2.88.88A4.8,4.8,0,0,1,86.57,29a5,5,0,0,1-1.43-3.64,5,5,0,0,1,1.43-3.63,4.76,4.76,0,0,1,3.57-1.46,4.84,4.84,0,0,1,2.59.69,4.67,4.67,0,0,1,1.75,1.86A5.35,5.35,0,0,1,95.09,25.38Zm-5-3.31a3,3,0,0,0-1.9.63,3,3,0,0,0-1,1.73h5.88a3.17,3.17,0,0,0-.59-1.27,2.59,2.59,0,0,0-1-.81A3.09,3.09,0,0,0,90.14,22.07Z" transform="translate(0 -0.28)"/></g></g></svg>