<svg xmlns="http://www.w3.org/2000/svg" width="96.977" height="36.284" viewBox="0 0 96.977 36.284"><defs><style>.a{fill:#e51b4f;}.b{fill:#fff;}.c{fill:#292929;font-size:18px;font-family:Mont-Bold, Mont;font-weight:700;}</style></defs><g transform="translate(0 142.893)"><g transform="translate(0 -156.545)"><rect class="a" width="36.284" height="36.284" rx="10" transform="translate(0 13.652)"/><path class="b" d="M17.379-1.7a1.569,1.569,0,0,1-1.145-.491,1.569,1.569,0,0,1-.491-1.145v-6.992a5.124,5.124,0,0,0-1.554-3.762,5.124,5.124,0,0,0-3.762-1.554,5.124,5.124,0,0,0-3.762,1.554,5.124,5.124,0,0,0-1.554,3.762A5.192,5.192,0,0,0,6.665-6.541a5.091,5.091,0,0,0,3.762,1.574,1.583,1.583,0,0,1,1.165.47,1.583,1.583,0,0,1,.47,1.165,1.6,1.6,0,0,1-.47,1.145,1.549,1.549,0,0,1-1.165.491A8.241,8.241,0,0,1,4.355-4.231,8.342,8.342,0,0,1,1.84-10.324a8.342,8.342,0,0,1,2.515-6.093,8.241,8.241,0,0,1,6.072-2.535A8.241,8.241,0,0,1,16.5-16.417a8.342,8.342,0,0,1,2.515,6.093v6.992a1.6,1.6,0,0,1-.47,1.145A1.549,1.549,0,0,1,17.379-1.7Z" transform="translate(7.2 40.957)"/></g><text class="c" transform="translate(48.977 -127.67)"><tspan x="0" y="0">lavr</tspan><tspan x="0" y="15">store</tspan></text><rect class="a" width="11" height="3" rx="1.5" transform="translate(85 -133.545)"/></g></svg>