<svg xmlns="http://www.w3.org/2000/svg" xmlns:xlink="http://www.w3.org/1999/xlink" width="448" height="394.274" viewBox="0 0 448 394.274"><defs><style>.a{fill:#bcbef9;}.b{fill:#333;}.c,.f,.h,.t{fill:none;stroke-miterlimit:10;}.c,.h,.t{stroke:#747bfd;}.c{stroke-dasharray:5 5;}.d{fill:#e51b4f;}.e,.k{fill:#fff;}.f{stroke:#fff;}.g{clip-path:url(#a);}.i{clip-path:url(#b);}.j{fill:#f9c03b;}.ab,.k,.n{opacity:0.2;}.l,.n,.x{fill:#231f20;}.l{opacity:0.1;}.m{fill:#0a1e7d;}.o{fill:#e99d86;}.p{fill:#c46623;}.q{fill:#e42568;}.r{fill:#747bfd;}.s{fill:#f7327a;}.t{stroke-width:3px;}.u{fill:#f7c6b5;}.v{clip-path:url(#c);}.w{fill:#c94958;}.y{fill:#95a6ef;}.z{fill:#f4b395;}.aa{fill:#3f91ac;}</style><clipPath id="a"><path class="a" d="M630.383,264.5a37.331,37.331,0,0,0-20.545-8.947c-3.775-.36-7.91.086-10.748,2.608-7.463,6.642-6.7,22.461-6.57,31.7.317,22.2,5.95,44.1,14.8,64.4a218.86,218.86,0,0,0,15.373,29c2.68,4.25,5.518,8.414,8.1,12.736,1.081,1.815,8.313,13.053,6.944,14.854,6.3-8.3,9.811-18.442,11.6-28.714,2.565-15.186,5.446-30.8,4.7-46.522a183.9,183.9,0,0,0-8.155-47.674A51.867,51.867,0,0,0,630.382,264.5Z" transform="translate(-592.436 -255.444)"/></clipPath><clipPath id="b"><path class="a" d="M596.965,297.483a24.636,24.636,0,0,1,14.407-3.371,9.264,9.264,0,0,1,6.671,2.968c4.049,5.2,1.671,15.358.49,21.337a110.935,110.935,0,0,1-17.289,40.01,146.623,146.623,0,0,1-13.414,16.986c-2.247,2.435-4.581,4.8-6.771,7.29-.908,1.052-6.944,7.492-6.267,8.817a43.223,43.223,0,0,1-4.106-20c.086-10.157.1-20.66,2.464-30.731a121.591,121.591,0,0,1,10.964-29.939A34.043,34.043,0,0,1,596.965,297.483Z" transform="translate(-570.658 -294.042)"/></clipPath><clipPath id="c"><path class="b" d="M542.343,286.25A11.324,11.324,0,0,1,531,297.574h0A11.31,11.31,0,0,1,519.68,286.25" transform="translate(-519.68 -286.25)"/></clipPath></defs><g transform="translate(0 0)"><path class="c" d="M410.656,451.668c-63.393-24.608-84.9-105.4-59.33-164.475,8.486-19.623,22.1-37.157,36.869-52.429,6.6-6.887,13.5-13.485,18.816-21.294,6.022-8.817,8.183-17.836,9.077-28.3.778-9.149.922-19.969,9.451-25.616,19.076-12.607,33.685,15.445,43.756,26.077,8.774,9.25,21.467,14.335,34.189,14.984a71.4,71.4,0,0,0,36.725-8.9c7.881-4.193,15.733-9.739,24.666-9.538,23.282.547,32.849,27.2,38.237,45.989,5.259,18.355,10.935,40.816,29.1,50.7,12.045,6.555,26.539,5.619,40.24,5.763,23.628.36,49.173,5.6,66.13,23.282,17.793,18.557,24.968,46.1,17.058,70.755-8.976,27.95-45.038,63.9-76.561,59.906" transform="translate(-331.616 -111.062)"/><rect class="d" width="120.648" height="72.945" rx="12" transform="translate(241.556 118.717)"/><path class="d" d="M417.748,216.667H382.68l21.4-24.147Z" transform="translate(-162.52 -25.005)"/><rect class="e" width="93.245" height="7.694" rx="2.67" transform="translate(255.257 133.542)"/><path class="e" d="M399.287,237.649h85.552a3.861,3.861,0,0,0,3.847-3.847h0a3.847,3.847,0,0,0-3.847-3.832H399.287a3.847,3.847,0,0,0-3.847,3.832h0a3.861,3.861,0,0,0,3.847,3.847Z" transform="translate(-140.183 -78.62)"/><path class="e" d="M399.307,250.014h38.9a3.861,3.861,0,0,0,3.847-3.847h0a3.861,3.861,0,0,0-3.847-3.847h-38.9a3.861,3.861,0,0,0-3.847,3.861h0A3.861,3.861,0,0,0,399.307,250.014Z" transform="translate(-93.58 -73.177)"/><path class="d" d="M1.647,0h58.01A1.647,1.647,0,0,1,61.3,1.647V39.256A1.647,1.647,0,0,1,59.657,40.9H1.647A1.647,1.647,0,0,1,0,39.256V1.647A1.647,1.647,0,0,1,1.647,0Z" transform="translate(145.357 63.666)"/><path class="f" d="M553.9,170l-26.827,26.034a4.135,4.135,0,0,1-5.648,0L494.58,170" transform="translate(-348.229 -105.052)"/><line class="f" x1="22.015" y1="16.914" transform="translate(183.652 86.329)"/><line class="f" y1="16.914" x2="22.015" transform="translate(146.351 86.329)"/><rect class="a" width="37.056" height="24.723" rx="2" transform="translate(3.155 22.144)"/><path class="f" d="M645.69,140.84l-16.223,15.733a2.478,2.478,0,0,1-3.414,0L609.83,140.84" transform="translate(-606.07 -117.904)"/><line class="f" x1="13.312" y1="10.229" transform="translate(26.308 35.845)"/><line class="f" y1="10.229" x2="13.312" transform="translate(3.76 35.845)"/><rect class="a" width="37.056" height="24.723" rx="2" transform="translate(325.436 207.207)"/><path class="f" d="M421.957,269.29l-16.223,15.733a2.507,2.507,0,0,1-3.414,0L386.14,269.29" transform="translate(-60.056 -61.29)"/><line class="f" x1="13.312" y1="10.229" transform="translate(348.589 220.909)"/><line class="f" y1="10.229" x2="13.312" transform="translate(326.041 220.909)"/><ellipse class="d" cx="28.21" cy="28.21" rx="28.21" ry="28.21" transform="translate(53.541 132.456) rotate(-107.77)"/><path class="e" d="M596.309,193.875l-1.023-1.138a4.6,4.6,0,0,1-1.21-3.4,4.654,4.654,0,0,1,1.542-3.256l1.729-1.57a4.754,4.754,0,0,1,6.671.331l1.023,1.138a4.208,4.208,0,0,1,.375.475h0a5.763,5.763,0,0,1,1.325,5.316,26.452,26.452,0,0,1-23.484,21.352,6.685,6.685,0,0,1-4.063-.836,4.825,4.825,0,0,1-1.138-.936l-1.037-1.138a4.711,4.711,0,0,1,.346-6.656l1.729-1.57a4.7,4.7,0,0,1,6.656.331l1.023,1.138a4.51,4.51,0,0,1,.98,1.657l.086.274.274-.1a19.867,19.867,0,0,0,10.5-9.639l.144-.288-.317-.1A4.6,4.6,0,0,1,596.309,193.875Z" transform="translate(-518.278 -99.189)"/><path class="e" d="M604.452,181.539a1.1,1.1,0,0,1-1.095,1.095,13.99,13.99,0,0,0-13.975,13.975,1.109,1.109,0,1,1-2.2,0,16.208,16.208,0,0,1,16.179-16.18,1.109,1.109,0,0,1,1.1,1.109Z" transform="translate(-532.184 -100.455)"/><path class="e" d="M599.073,185.265a1.1,1.1,0,0,1-1.109,1.095,8.788,8.788,0,0,0-8.774,8.789,1.1,1.1,0,1,1-2.19,0,10.978,10.978,0,0,1,10.964-10.978,1.1,1.1,0,0,1,1.11,1.095Z" transform="translate(-526.561 -98.806)"/><circle class="a" cx="18.197" cy="18.197" r="18.197" transform="translate(238.34 263.502) rotate(-135)"/><path class="e" d="M477.647,291.023l-.663-.735a2.982,2.982,0,0,1-.778-2.19,3.026,3.026,0,0,1,.994-2.1l1.124-1.009a3.026,3.026,0,0,1,4.322.216l.663.735a1.727,1.727,0,0,1,.245.3h0a3.746,3.746,0,0,1,.85,3.429,17.087,17.087,0,0,1-15.229,13.759,4.323,4.323,0,0,1-2.622-.548,2.712,2.712,0,0,1-.735-.605l-.663-.735a3.025,3.025,0,0,1,.216-4.322l1.109-1.009a3.025,3.025,0,0,1,4.322.216l.663.735a2.766,2.766,0,0,1,.634,1.066v.173h.173a12.823,12.823,0,0,0,6.772-6.224l.1-.187h-.2a3,3,0,0,1-1.3-.965Z" transform="translate(-235.299 -54.727)"/><path class="e" d="M482.866,283.056a.706.706,0,0,1-.706.706,9.033,9.033,0,0,0-9.019,9.019.72.72,0,1,1-1.441,0,10.445,10.445,0,0,1,10.431-10.431.706.706,0,0,1,.735.706Z" transform="translate(-244.235 -55.534)"/><path class="e" d="M479.429,285.466a.706.706,0,0,1-.706.706,5.662,5.662,0,0,0-5.662,5.662.72.72,0,1,1-1.441,0,7.074,7.074,0,0,1,7.074-7.074.706.706,0,0,1,.735.706Z" transform="translate(-240.683 -54.472)"/><ellipse class="a" cx="16.886" cy="16.886" rx="16.886" ry="16.886" transform="translate(56.24 197.602) rotate(-131.86)"/><path class="e" d="M602.695,246.521l-.605-.677a2.819,2.819,0,0,1,.187-3.991l1.037-.936a2.881,2.881,0,0,1,3.991.2l.62.677a2.537,2.537,0,0,1,.23.288h0a3.444,3.444,0,0,1,.778,3.184A15.848,15.848,0,0,1,594.857,258a4.149,4.149,0,0,1-2.435-.5,3.286,3.286,0,0,1-.691-.562l-.605-.677a2.881,2.881,0,0,1,.187-3.991l1.037-.836a2.881,2.881,0,0,1,3.991.2l.62.677a2.652,2.652,0,0,1,.576.994v.158h.159a11.872,11.872,0,0,0,6.3-5.763l.086-.173h-.187a2.882,2.882,0,0,1-1.2-1.009Z" transform="translate(-541.448 -74.107)"/><path class="e" d="M607.562,239.128a.663.663,0,0,1-.663.663,8.385,8.385,0,0,0-8.371,8.371.663.663,0,1,1-1.311,0,9.682,9.682,0,0,1,9.682-9.682.663.663,0,0,1,.663.648Z" transform="translate(-549.759 -74.87)"/><path class="e" d="M604.373,241.373a.663.663,0,0,1-.663.663,5.244,5.244,0,0,0-5.244,5.244.663.663,0,0,1-1.326,0,6.584,6.584,0,0,1,6.57-6.57A.663.663,0,0,1,604.373,241.373Z" transform="translate(-546.469 -73.887)"/><ellipse class="a" cx="15.661" cy="15.661" rx="15.661" ry="15.661" transform="matrix(-0.23, -0.973, 0.973, -0.23, 172.425, 37.679)"/><path class="e" d="M514.525,138.928l-.562-.634a2.593,2.593,0,0,1,.187-3.688l.951-.879a2.651,2.651,0,0,1,1.758-.677,2.607,2.607,0,0,1,1.945.864l.576.634a1.8,1.8,0,0,1,.2.259h0a3.228,3.228,0,0,1,.735,2.954,14.7,14.7,0,0,1-13.053,11.8A3.631,3.631,0,0,1,505,149.1a2.763,2.763,0,0,1-.634-.519l-.576-.634a2.622,2.622,0,0,1,.187-3.688l.965-.879a2.622,2.622,0,0,1,3.7.187l.562.634a2.494,2.494,0,0,1,.547.922v.144h.158a10.949,10.949,0,0,0,5.763-5.345l.086-.159h-.173A2.565,2.565,0,0,1,514.525,138.928Z" transform="translate(-327.055 -121.337)"/><path class="e" d="M519.015,132.08a.605.605,0,0,1-.62.605,7.766,7.766,0,0,0-7.751,7.766.62.62,0,0,1-1.225,0,9,9,0,0,1,8.976-8.99A.619.619,0,0,1,519.015,132.08Z" transform="translate(-334.729 -122.038)"/><path class="e" d="M516.067,134.185a.605.605,0,0,1-.605.605,4.884,4.884,0,0,0-4.87,4.87.62.62,0,1,1-1.224,0,6.094,6.094,0,0,1,6.094-6.08.605.605,0,0,1,.605.605Z" transform="translate(-331.694 -121.104)"/><path class="a" d="M630.383,264.5a37.331,37.331,0,0,0-20.545-8.947c-3.775-.36-7.91.086-10.748,2.608-7.463,6.642-6.7,22.461-6.57,31.7.317,22.2,5.95,44.1,14.8,64.4a218.86,218.86,0,0,0,15.373,29c2.68,4.25,5.518,8.414,8.1,12.736,1.081,1.815,8.313,13.053,6.944,14.854,6.3-8.3,9.811-18.442,11.6-28.714,2.565-15.186,5.446-30.8,4.7-46.522a183.9,183.9,0,0,0-8.155-47.674A51.867,51.867,0,0,0,630.382,264.5Z" transform="translate(-589.465 -67.393)"/><g class="g" transform="translate(2.971 188.052)"><path class="h" d="M639.681,423.028c2.132-26.783-.2-53.74-5.345-80.062-4.913-25.1-11.281-50.282-20.848-74.054a229.834,229.834,0,0,0-10.7-23.052" transform="translate(-593.666 -259.668)"/><path class="h" d="M612.54,270.91A161.784,161.784,0,0,1,650,289.539c2.881,1.974,4.567,2.565,7.031,5.115" transform="translate(-624.285 -248.628)"/><path class="h" d="M650.045,312.108A110.533,110.533,0,0,0,608.09,296.26" transform="translate(-610.888 -237.455)"/><path class="h" d="M645.9,337.459A94.254,94.254,0,0,0,604.44,317" transform="translate(-601.489 -228.314)"/><path class="h" d="M606,299.373a117.064,117.064,0,0,1,10.085-41.133" transform="translate(-573.917 -254.212)"/><path class="h" d="M590.89,316.785A103.732,103.732,0,0,1,615.844,283" transform="translate(-551.906 -243.299)"/><path class="h" d="M590.48,341.122a38.642,38.642,0,0,1,4.164-11.353,69.626,69.626,0,0,1,8.4-11.3q3.328-3.818,6.757-7.564" transform="translate(-545.272 -230.998)"/></g><path class="a" d="M596.965,297.483a24.636,24.636,0,0,1,14.407-3.371,9.264,9.264,0,0,1,6.671,2.968c4.049,5.2,1.671,15.358.49,21.337a110.935,110.935,0,0,1-17.289,40.01,146.623,146.623,0,0,1-13.414,16.986c-2.247,2.435-4.581,4.8-6.771,7.29-.908,1.052-6.944,7.492-6.267,8.817a43.223,43.223,0,0,1-4.106-20c.086-10.157.1-20.66,2.464-30.731a121.591,121.591,0,0,1,10.964-29.939A34.043,34.043,0,0,1,596.965,297.483Z" transform="translate(-524.25 -50.381)"/><g class="i" transform="translate(46.408 243.661)"><path class="h" d="M572,399.025a194.4,194.4,0,0,1,12.967-51.291,268.8,268.8,0,0,1,22.317-45.556,150.9,150.9,0,0,1,9.682-13.658" transform="translate(-569.249 -296.475)"/><path class="h" d="M597.291,306.48a106.753,106.753,0,0,0-26.538,7.622,23.148,23.148,0,0,0-5.172,2.492" transform="translate(-540.325 -288.56)"/><path class="h" d="M572.62,327.485a72.571,72.571,0,0,1,29.089-5.288" transform="translate(-554.885 -281.643)"/><path class="h" d="M577.65,343.548a62.11,62.11,0,0,1,29.319-8.328" transform="translate(-567.393 -275.893)"/><path class="h" d="M588.383,321.684a77.212,77.212,0,0,0-1.614-27.864" transform="translate(-562.537 -294.14)"/><path class="h" d="M604.8,332.975a68.048,68.048,0,0,0-12.16-24.925" transform="translate(-586.82 -287.868)"/><path class="h" d="M607.421,348.024a25.461,25.461,0,0,0-1.369-7.838,46.441,46.441,0,0,0-4.106-8.313q-1.7-2.881-3.487-5.763" transform="translate(-597.827 -279.908)"/></g><path class="j" d="M587.18,357.05h44.058c0,24.882-7.737,49.763-7.737,49.763H594.9S587.18,382.033,587.18,357.05Z" transform="translate(-558.985 -22.61)"/><rect class="j" width="50.757" height="6.699" transform="translate(24.839 327.74)"/><path class="j" d="M357.412,391.227h11.526a5.3,5.3,0,0,0,5.3-5.3V364.458a5.3,5.3,0,0,0-5.3-5.288H357.412a5.3,5.3,0,0,0-5.3,5.288v21.467A5.3,5.3,0,0,0,357.412,391.227Zm11.526-27.518a.764.764,0,0,1,.764.749v21.467a.764.764,0,0,1-.764.764H357.412a.764.764,0,0,1-.749-.764V364.458a.764.764,0,0,1,.749-.749Z" transform="translate(36.69 -21.676)"/><rect class="j" width="33.814" height="43.093" rx="3" transform="translate(366.079 331.054)"/><rect class="k" width="7.405" height="32.734" rx="2" transform="translate(371.021 331.054)"/><path class="l" d="M381.093,390.978a3.717,3.717,0,0,0,3.7-3.7V354.7h5.086a3.717,3.717,0,0,1,3.717,3.7v35.63a3.717,3.717,0,0,1-3.717,3.7H363.487a3.717,3.717,0,0,1-3.717-3.7v-3.1Z" transform="translate(6.295 -23.646)"/><path class="m" d="M515.779,440.539H616.53c7.751,0,14.033-4.971,14.033-11.108V354.382c0-28.167-28.815-51-64.4-51h0c-35.572,0-64.4,22.836-64.4,51v75.048C501.76,435.568,508.042,440.539,515.779,440.539Z" transform="translate(-435.241 -46.265)"/><path class="n" d="M523.557,312.51c-8.529,8.644-13.63,19.522-13.63,31.351v75.048c0,6.138,6.282,11.108,14.033,11.108H624.711a16.869,16.869,0,0,0,5.6-.936c-1.916,4.322-7.1,7.434-13.226,7.434H516.338c-7.737,0-14.018-4.971-14.018-11.108V350.358C502.32,335.346,510.518,321.86,523.557,312.51Z" transform="translate(-435.801 -42.241)"/><path class="o" d="M451.21,276.435h23.009l3.4-33.915H454.6Z" transform="translate(-321.125 -2.968)"/><path class="p" d="M561.658,413.611h0A15.747,15.747,0,0,0,573.9,389.277l-41.781-63.94a15.762,15.762,0,0,0-14.091-7.089h0a15.733,15.733,0,0,0-12.246,24.334l41.782,63.926a15.718,15.718,0,0,0,14.09,7.1Z" transform="translate(-383.236 -39.724)"/><path class="q" d="M552.036,362.3H445.075a15.935,15.935,0,0,0-15.935,15.92h0a15.935,15.935,0,0,0,15.935,15.935H552.036a15.935,15.935,0,0,0,15.92-15.935h0a15.92,15.92,0,0,0-15.92-15.92Z" transform="translate(-268.007 -20.296)"/><ellipse class="r" cx="15.171" cy="15.171" rx="15.171" ry="15.171" transform="matrix(-0.23, -0.973, 0.973, -0.23, 165.946, 236.491)"/><path class="s" d="M506.632,375.974c-.173,9.7-.13,19.407,0,29.1,0,4.855.115,9.711.173,14.566s-.447,10.215.259,15.013c5.691.85,12.1.1,17.865.1h73.478c1.253-.418,0-11.339.072-12.794,1.009-19.58,3.76-38.9,2.752-58.552a90.861,90.861,0,0,0-4.034-24.493c-4.02-11.973-11.828-21.726-23.916-26.049-11.526-4.106-24.248-3.919-36.148-2.262-8.961,1.253-16.28,7.016-21.611,14.119-7.866,10.575-7.91,24.9-8.544,37.546C506.849,366.825,506.7,371.407,506.632,375.974Z" transform="translate(-412.984 -43.566)"/><path class="t" d="M511.51,221.72c14.912,0,27,11.137,27,24.867V289.81" transform="translate(-357.235 -82.256)"/><path class="u" d="M542.8,332.257a41.782,41.782,0,0,0,15.488-2.2c22.908-8.083,25.126-34.578,24.593-54.345-.158-6.21-.13-12.4-.5-18.6-.432-7.319-2.665-14.941-10.546-17.836-2.06-.749-4.322-.85-6.354-1.441a25.818,25.818,0,0,0-7.722-1.441H534.448A25.573,25.573,0,0,0,514,246.547c-4.322,5.907-4.7,13.313-4.668,20.257,0,6.2,0,12.4.274,18.586.605,11.684,2.507,24.176,9.8,33.958a34.966,34.966,0,0,0,9.163,8.529A28.425,28.425,0,0,0,542.8,332.257Z" transform="translate(-398.542 -75.791)"/><path class="m" d="M533.517,225.544a18.572,18.572,0,0,1,6.181-1.715,23.168,23.168,0,0,1,8.14.692c.864.245,7.679,2.637,7.434,3.732a10.085,10.085,0,0,1,8.241-7.2,19.1,19.1,0,0,1,11.267,1.988c.937.432,6.728,5.028,5.129,6.339a12.016,12.016,0,0,1,6.772-2.464c4.322-.331,10.4.591,12.967,4.625a10.461,10.461,0,0,1,1.253,6.339,23.642,23.642,0,0,1-4.668,11.713c2.781-1.657,6.714.677,7.348,3.861s-1.311,6.426-3.976,8.255c-3.443,2.363-7.823,2.882-11.987,2.882-18.182.216-36.624-5.979-54.259-1.542a8.112,8.112,0,0,0-5.316,4.654,67.616,67.616,0,0,0-6.051,15.3c-1.686,6.584-4.149,14.292-11.526,16.093-1.686.418-3.53.879-4.841-.158s-2.55-4.322-3.3-5.921a52.272,52.272,0,0,1-2.881-8,59.257,59.257,0,0,1,1.542-36.451c2.882-7.2,8.039-15.7,15.7-18.341a15,15,0,0,1,6.08-1.095c.634.086,3.876,1.887,4.207,1.527a18.831,18.831,0,0,1,6.541-5.115Z" transform="translate(-401.934 -82.623)"/><path class="t" d="M530.26,286.18V246.6c0-13.73,12.088-24.853,27-24.853h16.77" transform="translate(-419.769 -82.243)"/><path class="b" d="M542.343,286.25A11.324,11.324,0,0,1,531,297.574h0A11.31,11.31,0,0,1,519.68,286.25" transform="translate(-372.839 -53.815)"/><g class="v" transform="translate(146.841 232.435)"><path class="w" d="M540,293.819c0,2.247-4.322,4.063-9.509,4.063S521,296.066,521,293.819s4.25-4.049,9.495-4.049S540,291.542,540,293.819Z" transform="translate(-519.242 -284.699)"/></g><path class="x" d="M537.42,272.024c0,3.242,1.786,5.864,3.977,5.864s3.976-2.622,3.976-5.864-1.772-5.864-3.976-5.864S537.42,268.811,537.42,272.024Z" transform="translate(-401.428 -62.67)"/><path class="x" d="M513.59,272.024c0,3.242,1.772,5.864,3.976,5.864s3.977-2.622,3.977-5.864-1.786-5.864-3.977-5.864S513.59,268.811,513.59,272.024Z" transform="translate(-343.265 -62.67)"/><path class="m" d="M553.862,260.929a9.97,9.97,0,0,0-8.774-1.066,10.085,10.085,0,0,0-6.5,5.994c1.441-.648,2.579-1.3,3.789-1.83a37.362,37.362,0,0,1,3.6-1.441,33.679,33.679,0,0,1,3.732-.965C551.009,261.361,552.349,261.188,553.862,260.929Z" transform="translate(-411.603 -65.694)"/><path class="m" d="M510.4,260.926c1.441.259,2.881.432,4.149.706a33.665,33.665,0,0,1,3.732.965,37.375,37.375,0,0,1,3.6,1.441c1.21.533,2.406,1.181,3.789,1.83a10.086,10.086,0,0,0-6.5-5.993A9.97,9.97,0,0,0,510.4,260.926Z" transform="translate(-342.798 -65.691)"/><ellipse class="o" cx="3.904" cy="3.587" rx="3.904" ry="3.587" transform="translate(154.261 216.457)"/><path class="t" d="M534.56,283.31c5.115,16.252,21.712,22.1,33.3,19.983" transform="translate(-419.79 -55.111)"/><path class="r" d="M541.258,298.753a5.129,5.129,0,1,1-1.5-3.636A5.129,5.129,0,0,1,541.258,298.753Z" transform="translate(-388.064 -50.571)"/><ellipse class="r" cx="15.791" cy="15.791" rx="15.791" ry="15.791" transform="matrix(-0.16, -0.987, 0.987, -0.16, 97.372, 236.408)"/><path class="y" d="M554.08,279.306a9.48,9.48,0,1,0,9.48-9.466A9.48,9.48,0,0,0,554.08,279.306Z" transform="translate(-453.098 -61.048)"/><path class="d" d="M516.711,414.777c-21.5-9.754-21.035-36.84-20.343-56.837.346-10.359.317-21.784,4.654-31.379,2.881-6.253,8.27-10.993,15.531-9.6,11.367,2.19,13.413,18.211,14.407,26.913,1.095,9.379.576,18.874,1.786,28.239.519,4.034,1.57,8.371,4.942,10.95,2.651,2.031,6.253,2.579,9.653,2.968a200.924,200.924,0,0,0,23.369,1.282c11.123,0,22.605-.951,33.065,2.564a5.547,5.547,0,0,1,2.363,1.282,5.071,5.071,0,0,1,.893,3.573v10.33a9.783,9.783,0,0,1-1.138,5.547,9.48,9.48,0,0,1-4.164,3.026c-7.737,3.429-16.612,3.717-25.2,3.948l-31.913.865c-9.019.23-19.234.13-27.561-3.515Z" transform="translate(-403.656 -40.386)"/><path class="u" d="M499.519,361.45c-7.694.346-13.745,4.668-19.421,9.48a13.082,13.082,0,0,0-4.827,7.477c-.605,3.573.677,7.477,4.524,7.809,4.9.432,9.682.1,13.99-2.406,3.343-1.959,6.109-5.417,10.186-5.835,3.242-.331,6.267,1.441,9.336,2.593a21.48,21.48,0,0,0,8.846,1.225,4.135,4.135,0,0,0,2.449-.749c2.737-2.291-3.746-10.085-5.475-11.641A29.074,29.074,0,0,0,513,365.081a26.293,26.293,0,0,0-13.485-3.631Z" transform="translate(-291.576 -20.671)"/><rect class="y" width="448" height="20.415" rx="6.25" transform="translate(0 373.858)"/><path class="z" d="M464.937,381.163a18.614,18.614,0,1,0-37.214,0" transform="translate(-162.942 -20.415)"/><rect class="r" width="79.299" height="14.393" rx="4" transform="translate(161.364 359.465)"/><path class="r" d="M370.1,405.612l18.557-94.47a5.316,5.316,0,0,1,5.215-4.322H517.228a5.288,5.288,0,0,1,4.322,2.19h0l5.662,6.714-5.057-1.095-18.269,93a5.316,5.316,0,0,1-5.216,4.322H375.329a5.316,5.316,0,0,1-5.23-6.339Z" transform="translate(-142.058 -44.749)"/><path class="a" d="M497.963,416.571H374.621a5.316,5.316,0,0,1-5.215-6.354l18.542-94.455a5.316,5.316,0,0,1,5.23-4.322H516.549a5.331,5.331,0,0,1,5.23,6.339l-18.557,94.47a5.331,5.331,0,0,1-5.259,4.322Z" transform="translate(-135.716 -42.713)"/><path class="r" d="M360.732,292.83H337.681L335.75,306.7h22.461Z" transform="translate(-37.89 19.206)"/><path class="aa" d="M369.32,314.51" transform="translate(16.814 -41.36)"/><g class="ab" transform="translate(257.29 272.747)"><path class="e" d="M479.142,321.434H408.07c-4.639,0-4.654-7.2,0-7.2h71.072C483.781,314.23,483.781,321.434,479.142,321.434Z" transform="translate(-404.585 -314.23)"/></g></g></svg>