<svg xmlns="http://www.w3.org/2000/svg" xmlns:xlink="http://www.w3.org/1999/xlink" width="52" height="52" viewBox="0 0 52 52"><defs><style>.a{fill:url(#a);}.b{fill:#fff;}</style><linearGradient id="a" x1="0.746" y1="0.059" x2="0.285" y2="0.938" gradientUnits="objectBoundingBox"><stop offset="0" stop-color="#c92590"/><stop offset="0.493" stop-color="#ce4e37"/><stop offset="1" stop-color="#ff9d00"/></linearGradient></defs><g transform="translate(-982 -799)"><circle class="a" cx="26" cy="26" r="26" transform="translate(982 799)"/><g transform="translate(999.071 816.071)"><path class="b" d="M10.907,8.235a2.672,2.672,0,1,0,2.672,2.672A2.672,2.672,0,0,0,10.907,8.235Zm0-1.781a4.453,4.453,0,1,1-4.453,4.453A4.453,4.453,0,0,1,10.907,6.453ZM16.7,6.231a1.113,1.113,0,1,1-1.113-1.113A1.113,1.113,0,0,1,16.7,6.231ZM10.907,3.781c-2.2,0-2.563.006-3.588.052a4.839,4.839,0,0,0-1.6.3A2.779,2.779,0,0,0,4.128,5.717a4.832,4.832,0,0,0-.295,1.6c-.046.983-.052,1.327-.052,3.588,0,2.2.006,2.563.052,3.588a4.858,4.858,0,0,0,.295,1.6,2.769,2.769,0,0,0,1.587,1.588,4.849,4.849,0,0,0,1.6.3c.983.046,1.327.052,3.588.052,2.2,0,2.563-.006,3.588-.052a4.867,4.867,0,0,0,1.6-.295,2.6,2.6,0,0,0,.962-.625,2.575,2.575,0,0,0,.627-.962,4.869,4.869,0,0,0,.3-1.6c.046-.983.052-1.327.052-3.588,0-2.2-.006-2.563-.052-3.588a4.848,4.848,0,0,0-.3-1.6,2.593,2.593,0,0,0-.626-.962,2.569,2.569,0,0,0-.962-.627,4.837,4.837,0,0,0-1.6-.295C13.512,3.787,13.168,3.781,10.907,3.781Zm0-1.781c2.42,0,2.722.009,3.671.053a6.561,6.561,0,0,1,2.163.414,4.342,4.342,0,0,1,1.578,1.027,4.371,4.371,0,0,1,1.027,1.578,6.58,6.58,0,0,1,.414,2.163c.042.949.053,1.251.053,3.671s-.009,2.722-.053,3.671a6.585,6.585,0,0,1-.414,2.163,4.547,4.547,0,0,1-2.605,2.605,6.58,6.58,0,0,1-2.163.414c-.949.042-1.251.053-3.671.053S8.185,19.8,7.235,19.76a6.585,6.585,0,0,1-2.163-.414A4.547,4.547,0,0,1,2.468,16.74a6.557,6.557,0,0,1-.414-2.163C2.012,13.628,2,13.327,2,10.907s.009-2.722.053-3.671a6.557,6.557,0,0,1,.414-2.163A4.346,4.346,0,0,1,3.495,3.495,4.362,4.362,0,0,1,5.073,2.468a6.557,6.557,0,0,1,2.163-.414C8.185,2.012,8.487,2,10.907,2Z" transform="translate(-2 -2)"/></g></g></svg>