<svg xmlns="http://www.w3.org/2000/svg" width="52" height="52" viewBox="0 0 52 52"><defs><style>.a{fill:#1fa1b2;}.b{fill:#fff;}</style></defs><g transform="translate(-1160 -799)"><circle class="a" cx="26" cy="26" r="26" transform="translate(1160 799)"/><g transform="translate(1174.235 816.071)"><g transform="translate(0 0)"><path class="b" d="M21.664,61H2.087A2.091,2.091,0,0,0,0,63.087V77a2.091,2.091,0,0,0,2.087,2.087H21.664A2.091,2.091,0,0,0,23.751,77V63.087A2.091,2.091,0,0,0,21.664,61Zm-.288,1.392L11.92,71.847,2.382,62.392ZM1.392,76.716V63.369l6.7,6.645Zm.984.984,6.706-6.706,2.35,2.33a.7.7,0,0,0,.982,0l2.291-2.291,6.67,6.67Zm19.984-.984-6.67-6.67,6.67-6.67Z" transform="translate(0 -61)"/></g></g></g></svg>