<svg xmlns="http://www.w3.org/2000/svg" width="52" height="52" viewBox="0 0 52 52"><defs><style>.a{fill:#1fb25d;}.b{fill:#fff;}</style></defs><g transform="translate(-1071 -799)"><circle class="a" cx="26" cy="26" r="26" transform="translate(1071 799)"/><g transform="translate(1088.137 816.071)"><path class="b" d="M6.679,16.691l.645.377a7.123,7.123,0,1,0-2.577-2.577l.376.645-.582,2.138,2.138-.583ZM2,19.813l1.2-4.425a8.9,8.9,0,1,1,3.219,3.218ZM7.692,6.728a3.017,3.017,0,0,1,.359,0c.048,0,.1.009.144.014a.449.449,0,0,1,.35.222q.4.9.773,1.817a.541.541,0,0,1-.083.478A3.9,3.9,0,0,1,9,9.587c-.1.129-.317.366-.317.366a.286.286,0,0,0-.054.236.788.788,0,0,0,.091.183l.053.085a5.642,5.642,0,0,0,.908,1.129c.107.1.211.209.323.308a5.353,5.353,0,0,0,1.4.891l0,0c.076.033.114.051.224.1a1.28,1.28,0,0,0,.17.059.312.312,0,0,0,.327-.116A10.4,10.4,0,0,1,12.838,12v0a.429.429,0,0,1,.337-.113.461.461,0,0,1,.158.036c.473.216,1.247.554,1.247.554l.518.232a.3.3,0,0,1,.169.236,1.719,1.719,0,0,1-.012.332,2.481,2.481,0,0,1-.167.653,1.029,1.029,0,0,1-.187.269,2.118,2.118,0,0,1-.294.257q-.055.041-.111.08-.166.105-.341.2a1.772,1.772,0,0,1-.742.2,4.591,4.591,0,0,1-.5.012c-.007,0-.506-.077-.506-.077a8.415,8.415,0,0,1-3.42-1.822c-.2-.177-.387-.368-.578-.558a8.47,8.47,0,0,1-1.755-2.442,3.091,3.091,0,0,1-.295-1.259,2.431,2.431,0,0,1,.5-1.5A2.106,2.106,0,0,1,7.1,7.019a1.134,1.134,0,0,1,.262-.2.856.856,0,0,1,.33-.089Z" transform="translate(-2 -2)"/></g></g></svg>